PathFileType	4	(X/Y/Z)	pose_F01_0-96.trc
DataRate	CameraRate	NumFrames	NumMarkers	Units	OrigDataRate	OrigDataStartFrame	OrigNumFrames
30	30	9	21	m	30	60	96
Frame#	Time	CHip			RHip			RKnee			RAnkle			RBigToe			RSmallToe			RHeel			LHip			LKnee			LAnkle			LBigToe			LSmallToe			LHeel			Neck			Nose			RShoulder			RElbow			RWrist			LShoulder			LElbow			LWrist			
		X1	Y1	Z1	X2	Y2	Z2	X3	Y3	Z3	X4	Y4	Z4	X5	Y5	Z5	X6	Y6	Z6	X7	Y7	Z7	X8	Y8	Z8	X9	Y9	Z9	X10	Y10	Z10	X11	Y11	Z11	X12	Y12	Z12	X13	Y13	Z13	X14	Y14	Z14	X15	Y15	Z15	X16	Y16	Z16	X17	Y17	Z17	X18	Y18	Z18	X19	Y19	Z19	X20	Y20	Z20	X21	Y21	Z21	
60	2.0	-0.17815300025871925	1.8629402915248943	-0.6216749737829272	-0.19563019539191043	1.8584039667726662	-0.5553553931315914	-0.22502632248700039	1.7166332726153422	-0.4471022635999821	-0.20314890154162166	1.5973625787053323	-0.364556541273084	-0.2213603032252965	1.5692664947417658	-0.38364801232922396	-0.21657319637482492	1.577345612768402	-0.3615376279840167	-0.19820631769366412	1.5960364890442564	-0.36115800263785114	-0.1643305474665367	1.8660768407267043	-0.6862281046536728	-0.1872597354840171	1.720743410645094	-0.7082603905909104	-0.15130999901804904	1.579279836059219	-0.7447069285929963	-0.28529777612229423	1.480892382311503	-1.1873347336082751	-0.2686868022798977	1.482060566817958	-1.2149259868673363	-0.14278928253483325	1.5697236355049058	-0.7442200822395988	-0.19244936501922877	2.025399190769259	-0.6063274527419849	-0.20036903518620441	2.102098668845782	-0.6439519419737616	-0.21303877911237087	2.0165042346455873	-0.5086864535277112	-0.23586323468177628	1.9399896828818497	-0.39086982500076395	-0.2729748108603532	1.9615519775948516	-0.2915590981075463	-0.16827493113335074	2.0344221354466665	-0.7008412820617439	-0.14546591506151763	1.9808141320616481	-0.8080512487934738	-0.16758592253636262	2.0158401287157757	-0.8698199429564227
61	2.033333333333333	-0.1777198302805969	1.857050486774795	-0.6001215477635727	-0.19176368696675059	1.8512025025806302	-0.5323684283924163	-0.22399139263264173	1.7031890853029028	-0.42815417765173364	-0.20280884532167182	1.592878728432048	-0.3646584493152839	-0.2213603032252965	1.5692664947417658	-0.38364801232922396	-0.21657319637482492	1.577345612768402	-0.3615376279840167	-0.19667549320218153	1.5891088243287705	-0.3668511756028355	-0.16434552003816405	1.8615533957850277	-0.664875324057274	-0.19414925053966467	1.7199018246297844	-0.6805098709490097	-0.15555126595084273	1.583107427701786	-0.7330110985995897	-0.29535807532115593	1.482453790480439	-1.199029811595635	-0.27556888314990513	1.4838473956363878	-1.2273296663169497	-0.14444857041070683	1.57456769858605	-0.7354695956904729	-0.19480944272565187	2.014669951859698	-0.5741523662909441	-0.20294567169735292	2.092067203350165	-0.6135605941160659	-0.21152874376594702	2.0050168082043007	-0.4830069578075212	-0.2366882017882118	1.9308829905430227	-0.37497069685005885	-0.2679808412435815	1.956315675972775	-0.2831133339982251	-0.17356292156528108	2.0248415603817183	-0.6668265364178788	-0.16415303865896552	1.9755195056022457	-0.7662381467062952	-0.1906003498552348	2.014827801223924	-0.8107004415911747
62	2.066666666666667	-0.17593578821668687	1.8525532224660712	-0.5841191788368659	-0.1888467931101287	1.845466884602019	-0.5215876766781394	-0.22688480087625426	1.7026996740519431	-0.4203710328296184	-0.2030440651548713	1.5968784697563554	-0.36470547995954206	-0.2213603032252965	1.5692664947417658	-0.38364801232922396	-0.21657319637482492	1.577345612768402	-0.3615376279840167	-0.19731056441342434	1.5952809316115788	-0.3670212195643947	-0.16365448523523787	1.857035146570794	-0.6522789833837067	-0.1891460473380871	1.7188501357968018	-0.6730012022890765	-0.15183908971062016	1.584283763169583	-0.7203582478300703	-0.2939739379296337	1.483130197626793	-1.2058530265388623	-0.2751760965977739	1.4829863228055429	-1.2375143702810982	-0.14283609743701842	1.5766031895584245	-0.7165601204877012	-0.18998608995252728	2.0096519390107423	-0.5563529730562997	-0.20469833656704628	2.083563047804292	-0.5885561919332686	-0.20635489023255565	1.9993206268225165	-0.46480494300439695	-0.23096287990837386	1.925461600091445	-0.3801179746153327	-0.26569501679243696	1.952665624731175	-0.29009815026152214	-0.17071038651295078	2.0228855267942123	-0.6558534671604727	-0.16837546355156538	1.9685185908006755	-0.7486863971564086	-0.20532705712608612	2.008907825201869	-0.7775321205174108
63	2.1	-0.1728272500151717	1.8577947376894062	-0.5839341495965982	-0.18761047953741813	1.8518488318650348	-0.5193845785790631	-0.22043489654001525	1.708319199028804	-0.42809749367035643	-0.20193456934113385	1.5964532000044271	-0.36123181028600965	-0.2213603032252965	1.5692664947417658	-0.38364801232922396	-0.21657319637482492	1.577345612768402	-0.3615376279840167	-0.19791865575264564	1.5937039882031656	-0.36154181616600994	-0.16053029453808032	1.8623431806069648	-0.6521544052089878	-0.18163027312187646	1.7151560877880083	-0.6802373263189463	-0.14872280123824777	1.5845161833303019	-0.7196011236103318	-0.2939447703998033	1.4834082297472613	-1.2057908503191594	-0.27739775708194436	1.4840047908393588	-1.2338164319724505	-0.14020954430396756	1.5752297348735511	-0.7190970288568661	-0.18262192035615596	2.0118668550120744	-0.5592615722973576	-0.2071061158826663	2.0802262583592355	-0.5685198126084376	-0.19822841947146727	2.001638453689794	-0.46450195464307464	-0.2266858510933144	1.9236507296810996	-0.3836017181345723	-0.2705389121097123	1.9446942694539144	-0.30962009786976247	-0.16457302636077129	2.022622098358326	-0.653841175015265	-0.17010742648270358	1.9663237665569058	-0.7228900448557686	-0.22459576357535682	2.006144373892258	-0.7225309829235214
64	2.1333333333333333	-0.16902982387029167	1.8657436411014858	-0.5928319335924409	-0.18107476238495104	1.8595343738830963	-0.5273828494201123	-0.2117432773007574	1.7176685897090112	-0.4299916473051959	-0.20245882259007641	1.5999139583949369	-0.3610656225134548	-0.2213603032252965	1.5692664947417658	-0.38364801232922396	-0.21657319637482492	1.577345612768402	-0.3615376279840167	-0.1964647100438809	1.5938814513123571	-0.3630456157054851	-0.15847496251528595	1.8711855807862254	-0.6589640060713406	-0.17865479778283835	1.7206124684490212	-0.6797747854575122	-0.1464205789205733	1.5845829569763301	-0.7218793301857208	-0.17248092215503835	1.5440733968485307	-0.7199090026181715	-0.28086075958957474	1.4847762325747857	-1.2327721606673205	-0.13569334709763747	1.5726319065054142	-0.7230959243239908	-0.18020585977566048	2.019181421133699	-0.5622828056809999	-0.20901910554424613	2.080089478077089	-0.565520418231937	-0.1939841743589702	2.0089594867232736	-0.4698062324249624	-0.22031943945508525	1.9309762454398436	-0.39113800151121497	-0.2723142605079381	1.940639370806724	-0.3066119488432347	-0.16276037790762407	2.031460147045697	-0.659749835747167	-0.16909922455375695	1.9659281527060084	-0.7194336899892712	-0.22235915884117557	1.9991018806711505	-0.703344506704869
65	2.1666666666666665	-0.16757832201838163	1.8737932680280187	-0.5995636767793738	-0.1798039343990082	1.8689230222669606	-0.5344029148858364	-0.20360653897750897	1.7242270812671479	-0.4446513506234223	-0.202763953685252	1.5986547702885026	-0.3605996898009605	-0.2213603032252965	1.5692664947417658	-0.38364801232922396	-0.21657319637482492	1.577345612768402	-0.3615376279840167	-0.19975607113355753	1.5928841769541946	-0.36368767178844447	-0.15387411861957687	1.8775604494575553	-0.6646830297441816	-0.17256561301343165	1.7249456664090659	-0.6783547144815056	-0.1468833693117478	1.58433761739842	-0.7210837949462462	-0.1768150120352098	1.5489802902157543	-0.7081501153628829	-0.28805128264694174	1.4894059070465193	-1.2218199751535634	-0.13599465254508272	1.5722341127787085	-0.722204363343919	-0.17860102648392753	2.0288318868744812	-0.5780077641963508	-0.20903545413845484	2.083935565258968	-0.5665222343963169	-0.19462822781133016	2.018249278974465	-0.48376310511699777	-0.2160555013541251	1.942441833405399	-0.4040593543176879	-0.26777897631109215	1.9423567699739452	-0.30843646729615215	-0.15929533254243025	2.0378705150126075	-0.6686829979633268	-0.1662254158666634	1.9773839545753955	-0.7227400527123143	-0.23562492470184457	1.9972377944112258	-0.6899073803201999
66	2.2	-0.16526925615233723	1.8795135917732548	-0.6114958917264004	-0.17694606621376005	1.8737088358343803	-0.5430917083385952	-0.1949053822871654	1.735003290389208	-0.46469181929404996	-0.2036878991821184	1.603504451679413	-0.3649542145819622	-0.2213603032252965	1.5692664947417658	-0.38364801232922396	-0.21657319637482492	1.577345612768402	-0.3615376279840167	-0.20099843059233222	1.5993645598582054	-0.3677511784384546	-0.14853527640936712	1.8825108875505396	-0.6754239544869097	-0.1639571310899704	1.729705787840755	-0.6796104649399058	-0.14884006281048842	1.5890147453568981	-0.7198273846786761	-0.17512955294879307	1.5536439820403032	-0.7016839188117846	-0.28873058171489235	1.4929162534422467	-1.2260940635096769	-0.13676684622096405	1.5765612549596055	-0.721862519245322	-0.1791955442311883	2.0343053896491408	-0.5910712887054245	-0.21000309930107633	2.084024808525425	-0.5695687623341762	-0.19460523297422525	2.023889865923415	-0.49391053252858813	-0.21428152891752425	1.9470538619380244	-0.41630864621831093	-0.26251810013161503	1.9380211391430775	-0.3141420884455786	-0.1595725616235632	2.0433897882260466	-0.6816389333843385	-0.16277047403098094	1.9783110079770165	-0.7306737786414158	-0.23282589561455352	1.992166538731649	-0.6882147547259082
67	2.2333333333333334	-0.16141426766027733	1.8785484300127857	-0.6162794275911774	-0.17603120542972583	1.873932150030418	-0.5486490695877714	-0.18909222255086489	1.737909845215376	-0.4716966436541278	-0.20198586693961937	1.6082000345178864	-0.36700679757264465	-0.2213603032252965	1.5692664947417658	-0.38364801232922396	-0.21657319637482492	1.577345612768402	-0.3615376279840167	-0.1982151828195432	1.6013256996105474	-0.3662000552073127	-0.14533603014289445	1.8818164517126417	-0.6831677968325978	-0.1612673921189195	1.7335855855833957	-0.6827270218472802	-0.14669521754651035	1.590482969052524	-0.721878880963052	-0.17265737989171528	1.5553528690252414	-0.7045501893296993	-0.2875296940407156	1.4971771249428492	-1.235915283237084	-0.13672791457200456	1.5800260696481851	-0.7222194981947746	-0.17808523439791293	2.034592546747974	-0.5966472530282003	-0.21107554687882316	2.0828780346654123	-0.5728062185683159	-0.1946377489346343	2.025572238921863	-0.5030073960805324	-0.21184458688547556	1.9469950150221047	-0.43312519312999603	-0.2581086015914109	1.930753758149764	-0.313858582594618	-0.1599045060929501	2.0452982666453132	-0.6935985475837746	-0.15958522139792478	1.973450321853444	-0.7386526588715879	-0.22645780334070292	1.9827216322910002	-0.7030136424522275
68	2.2666666666666666	-0.15879200028124446	1.8788617594387338	-0.6273138001819413	-0.17477928623467984	1.8740985473226304	-0.5544136252511239	-0.18736690969284722	1.7378579752028207	-0.47364337622828356	-0.20006155053912672	1.6085891501798049	-0.36908689650878806	-0.2213603032252965	1.5692664947417658	-0.38364801232922396	-0.21657319637482492	1.577345612768402	-0.3615376279840167	-0.19696982193356993	1.602361218058776	-0.3720398938395478	-0.1438935777914797	1.8820243668101735	-0.6889890831057455	-0.1596169567667455	1.7348660350953513	-0.6847405051974482	-0.14539524998506984	1.5934966579540986	-0.719727812017774	-0.1671833706237563	1.5614074070929407	-0.7066400194848382	-0.28430117045144165	1.5026055487321275	-1.2382705777330172	-0.13618018531528117	1.5813095902396939	-0.7189157232464608	-0.17788156763514848	2.033728223452912	-0.6052833394317121	-0.21496837652856876	2.08056639592111	-0.5765385666086182	-0.19637896146037762	2.025823302764312	-0.5095155499306512	-0.20797496763062664	1.9474653172578065	-0.44647089932312845	-0.2588556985350125	1.9205382931014576	-0.3210490120063374	-0.1603216306666728	2.0444659294030387	-0.7050942343580676	-0.157728635924543	1.9726723968711561	-0.7523822769975544	-0.22765903376163263	1.9689600851272833	-0.713091997339676
